<mxfile host="65bd71144e">
    <diagram id="WBzpQqD0giaPxHZME1Q3" name="Version2">
        <mxGraphModel dx="-430" dy="225" grid="1" gridSize="10" guides="1" tooltips="1" connect="1" arrows="1" fold="1" page="1" pageScale="1" pageWidth="827" pageHeight="1169" math="0" shadow="0">
            <root>
                <mxCell id="rhlbqimN3HDKiPcZjt1G-0"/>
                <mxCell id="rhlbqimN3HDKiPcZjt1G-1" parent="rhlbqimN3HDKiPcZjt1G-0"/>
                <mxCell id="15" value="user" style="swimlane;fontStyle=1;align=center;verticalAlign=top;childLayout=stackLayout;horizontal=1;startSize=26;horizontalStack=0;resizeParent=1;resizeParentMax=0;resizeLast=0;collapsible=1;marginBottom=0;" vertex="1" parent="rhlbqimN3HDKiPcZjt1G-1">
                    <mxGeometry x="1120" y="360" width="160" height="60" as="geometry">
                        <mxRectangle x="1120" y="360" width="60" height="26" as="alternateBounds"/>
                    </mxGeometry>
                </mxCell>
                <mxCell id="17" value="" style="line;strokeWidth=1;fillColor=none;align=left;verticalAlign=middle;spacingTop=-1;spacingLeft=3;spacingRight=3;rotatable=0;labelPosition=right;points=[];portConstraint=eastwest;" vertex="1" parent="15">
                    <mxGeometry y="26" width="160" height="8" as="geometry"/>
                </mxCell>
                <mxCell id="18" value="getAll(id)" style="text;strokeColor=none;fillColor=none;align=left;verticalAlign=top;spacingLeft=4;spacingRight=4;overflow=hidden;rotatable=0;points=[[0,0.5],[1,0.5]];portConstraint=eastwest;" vertex="1" parent="15">
                    <mxGeometry y="34" width="160" height="26" as="geometry"/>
                </mxCell>
                <mxCell id="19" value="artifact" style="swimlane;fontStyle=1;align=center;verticalAlign=top;childLayout=stackLayout;horizontal=1;startSize=26;horizontalStack=0;resizeParent=1;resizeParentMax=0;resizeLast=0;collapsible=1;marginBottom=0;" vertex="1" parent="rhlbqimN3HDKiPcZjt1G-1">
                    <mxGeometry x="1290" y="360" width="160" height="60" as="geometry"/>
                </mxCell>
                <mxCell id="20" value="" style="line;strokeWidth=1;fillColor=none;align=left;verticalAlign=middle;spacingTop=-1;spacingLeft=3;spacingRight=3;rotatable=0;labelPosition=right;points=[];portConstraint=eastwest;" vertex="1" parent="19">
                    <mxGeometry y="26" width="160" height="8" as="geometry"/>
                </mxCell>
                <mxCell id="21" value="getAll(id)" style="text;strokeColor=none;fillColor=none;align=left;verticalAlign=top;spacingLeft=4;spacingRight=4;overflow=hidden;rotatable=0;points=[[0,0.5],[1,0.5]];portConstraint=eastwest;" vertex="1" parent="19">
                    <mxGeometry y="34" width="160" height="26" as="geometry"/>
                </mxCell>
                <mxCell id="22" value="answer" style="swimlane;fontStyle=1;align=center;verticalAlign=top;childLayout=stackLayout;horizontal=1;startSize=26;horizontalStack=0;resizeParent=1;resizeParentMax=0;resizeLast=0;collapsible=1;marginBottom=0;" vertex="1" parent="rhlbqimN3HDKiPcZjt1G-1">
                    <mxGeometry x="1120" y="280" width="180" height="60" as="geometry">
                        <mxRectangle x="1120" y="360" width="60" height="26" as="alternateBounds"/>
                    </mxGeometry>
                </mxCell>
                <mxCell id="23" value="" style="line;strokeWidth=1;fillColor=none;align=left;verticalAlign=middle;spacingTop=-1;spacingLeft=3;spacingRight=3;rotatable=0;labelPosition=right;points=[];portConstraint=eastwest;" vertex="1" parent="22">
                    <mxGeometry y="26" width="180" height="8" as="geometry"/>
                </mxCell>
                <mxCell id="24" value="save(userID,artifactID,answer)" style="text;strokeColor=none;fillColor=none;align=left;verticalAlign=top;spacingLeft=4;spacingRight=4;overflow=hidden;rotatable=0;points=[[0,0.5],[1,0.5]];portConstraint=eastwest;" vertex="1" parent="22">
                    <mxGeometry y="34" width="180" height="26" as="geometry"/>
                </mxCell>
            </root>
        </mxGraphModel>
    </diagram>
</mxfile>